<svg id="Layer_1" data-name="Layer 1" xmlns="http://www.w3.org/2000/svg" viewBox="0 0 583 583"><defs><style>.cls-1{fill:#fff;}.cls-2{fill:red;}</style></defs><title>pokemon</title><path d="M720.5,450.5v-30h-6.45a261.59,261.59,0,0,0-502-86.28A258.8,258.8,0,0,0,191.9,421.5h-30c7.55-154.25,135-277,291.14-277C614,144.5,744.5,275,744.5,436S614,727.5,453,727.5c-155.79,0-283-122.22-291.09-276h30a261.59,261.59,0,0,0,502,86.28A258.8,258.8,0,0,0,714.1,450.5Z" transform="translate(-161.5 -144.5)"/><path d="M720.5,435.5v15h-6.4q.4-7.22.4-14.5v-.5Z" transform="translate(-161.5 -144.5)"/><path d="M720.5,420.5v15h-6c0-5-.16-10-.45-15Z" transform="translate(-161.5 -144.5)"/><path d="M714.5,435.5v.5q0,7.29-.4,14.5H544.36A92.51,92.51,0,0,0,545.5,436c0-.17,0-.33,0-.5Z" transform="translate(-161.5 -144.5)"/><path d="M714.5,435.5h-169a90.45,90.45,0,0,0-1.3-15H714.05C714.34,425.47,714.49,430.48,714.5,435.5Z" transform="translate(-161.5 -144.5)"/><path class="cls-1" d="M544.36,450.5H714.1A261.58,261.58,0,0,1,212,537.78,259,259,0,0,1,192,451.5H361.81a92.5,92.5,0,0,0,182.55-1Z" transform="translate(-161.5 -144.5)"/><path class="cls-2" d="M714.05,420.5H544.19a92.5,92.5,0,0,0-182.55,1H191.9A261.58,261.58,0,0,1,694,334.22,259,259,0,0,1,714.05,420.5Z" transform="translate(-161.5 -144.5)"/><path d="M545.49,435.5c0,.17,0,.33,0,.5a92.51,92.51,0,0,1-1.14,14.5H531.5v-15Z" transform="translate(-161.5 -144.5)"/><path d="M545.49,435.5h-14v-15h12.69A90.45,90.45,0,0,1,545.49,435.5Z" transform="translate(-161.5 -144.5)"/><circle class="cls-1" cx="291.5" cy="291.5" r="62.5"/><path d="M390.5,436A62.5,62.5,0,1,0,453,373.5,62.5,62.5,0,0,0,390.5,436Zm141,14.5h12.86a92.5,92.5,0,0,1-182.55,1H375.5v-30H361.64a92.5,92.5,0,0,1,182.55-1H531.5v30Z" transform="translate(-161.5 -144.5)"/><path d="M375.5,436.5v15H361.81a90.45,90.45,0,0,1-1.3-15Z" transform="translate(-161.5 -144.5)"/><path d="M375.5,421.5v15h-15c0-.17,0-.33,0-.5a92.51,92.51,0,0,1,1.14-14.5Z" transform="translate(-161.5 -144.5)"/><path d="M361.81,451.5H192c-.29-5-.44-10-.45-15h169A90.45,90.45,0,0,0,361.81,451.5Z" transform="translate(-161.5 -144.5)"/><path d="M191.9,421.5H361.64A92.51,92.51,0,0,0,360.5,436c0,.17,0,.33,0,.5h-169V436Q191.5,428.71,191.9,421.5Z" transform="translate(-161.5 -144.5)"/><path d="M192,451.5h-30q-.41-7.46-.41-15h30C191.51,441.52,191.66,446.53,192,451.5Z" transform="translate(-161.5 -144.5)"/><path d="M161.86,421.5h30q-.41,7.22-.4,14.5v.5h-30V436Q161.5,428.71,161.86,421.5Z" transform="translate(-161.5 -144.5)"/><path d="M161.91,451.5h-.41v-15Q161.51,444,161.91,451.5Z" transform="translate(-161.5 -144.5)"/><path d="M161.5,421.5h.36q-.36,7.2-.36,14.5Z" transform="translate(-161.5 -144.5)"/></svg>